<?xml version="1.0" encoding="UTF-8" standalone="no"?>
<!-- Uploaded to: SVG Repo, www.svgrepo.com, Generator: SVG Repo Mixer Tools -->

<svg
   fill="#000000"
   width="800px"
   height="800px"
   viewBox="0 0 35 35"
   data-name="Layer 2"
   id="Layer_2"
   version="1.1"
   sodipodi:docname="moon.svg"
   inkscape:version="1.4.3 (1:1.4.3+202512261035+0d15f75042)"
   xmlns:inkscape="http://www.inkscape.org/namespaces/inkscape"
   xmlns:sodipodi="http://sodipodi.sourceforge.net/DTD/sodipodi-0.dtd"
   xmlns="http://www.w3.org/2000/svg"
   xmlns:svg="http://www.w3.org/2000/svg">
  <defs
     id="defs1" />
  <sodipodi:namedview
     id="namedview1"
     pagecolor="#ffffff"
     bordercolor="#000000"
     borderopacity="0.25"
     inkscape:showpageshadow="2"
     inkscape:pageopacity="0.0"
     inkscape:pagecheckerboard="0"
     inkscape:deskcolor="#d1d1d1"
     inkscape:zoom="0.72875"
     inkscape:cx="399.31389"
     inkscape:cy="400"
     inkscape:window-width="1440"
     inkscape:window-height="834"
     inkscape:window-x="0"
     inkscape:window-y="0"
     inkscape:window-maximized="1"
     inkscape:current-layer="Layer_2" />
  <path
     d="M18.44,34.68a18.22,18.22,0,0,1-2.94-.24,18.18,18.18,0,0,1-15-20.86A18.06,18.06,0,0,1,9.59.63,2.42,2.42,0,0,1,12.2.79a2.39,2.39,0,0,1,1,2.41L11.9,3.1l1.23.22A15.66,15.66,0,0,0,23.34,21h0a15.82,15.82,0,0,0,8.47.53A2.44,2.44,0,0,1,34.47,25,18.18,18.18,0,0,1,18.44,34.68ZM10.67,2.89a15.67,15.67,0,0,0-5,22.77A15.66,15.66,0,0,0,32.18,24a18.49,18.49,0,0,1-9.65-.64A18.18,18.18,0,0,1,10.67,2.89Z"
     id="path1"
     style="fill:#f2f2f2" />
</svg>
